# xmcd
#
# Track frame offsets: 
#        150
#        16626
#        38653
#        61713
#        90815
#        111604
#        133202
#        148278
#        183529
#        202816
#        228392
#        245481
#        264199
#        290500
#        309478
#        324338
#
# Disc length: 4678 seconds
#
# Revision: 0
# Processed by: cddbd v1.5.1PL0 Copyright (c) Steve Scherf et al.
# Submitted via: ExactAudioCopy v0.95a4
#
DISCID=d8124410
DTITLE=Various Artist - Blues vol. 6
DYEAR=1900
DGENRE=Blues
TTITLE0=Vargas Blues Band - Hot Wires
TTITLE1=Larry Carner - Another Bad Day
TTITLE2=Tony Joe White - Ain't Goin' Down This Time
TTITLE3=Larry McCrey - Gone For Good
TTITLE4=Dana Gillespie - Where Blues Begins
TTITLE5=Dr.Feelgood - You Gotta Help Me
TTITLE6=OMAR and The Howlers - Steady Rock
TTITLE7=Ronnie Earl and Irma Thomas - New Vietnam Blues
TTITLE8=Walter Trout Band - Sweet As Flower
TTITLE9=Walter Trout Band - Marie's Mood
TTITLE10=Colin James - Something Good
TTITLE11=Keb' Mo - I Don't Know
TTITLE12=Mike Morgan - Cold Wind
TTITLE13=Crosby Stills and Nash -Till It Shines
TTITLE14=Isaac Scott - Help
TTITLE15=Blues Company - Silent Night
EXTD=
EXTT0=
EXTT1=
EXTT2=
EXTT3=
EXTT4=
EXTT5=
EXTT6=
EXTT7=
EXTT8=
EXTT9=
EXTT10=
EXTT11=
EXTT12=
EXTT13=
EXTT14=
EXTT15=
PLAYORDER=
